<svg id="Layer_1" data-name="Layer 1" xmlns="http://www.w3.org/2000/svg" viewBox="0 0 113.2 73.53"><defs><style>.cls-1,.cls-2{fill:none;stroke:#000;stroke-miterlimit:10;}.cls-2{stroke-width:0.25px;}</style></defs><path class="cls-1" d="M.66,64.48S-1.94,31.36,13.87,6.06L28.29,4.11S60.94,0,85.4,4.11L99.85,6.85s9.37,17.63,11.69,36.05,1.21,24-3.81,27.07A17.94,17.94,0,0,1,96.94,72.2s-4-16.93-12.28-24.74l-57.12-.1s-5.86,6.14-9.21,18.52S5,70.81,5,70.81A10.11,10.11,0,0,1,.66,64.48Z"/><path class="cls-1" d="M35.73,3.36l3.91,17.17S40,23.13,42,23.18s30.23,0,30.23,0,1.45-.09,1.73-3.12,1.9-17.35,1.9-17.35a153.36,153.36,0,0,0-19.22-.4C45,2.71,35.73,3.36,35.73,3.36Z"/><circle class="cls-1" cx="83.31" cy="20.53" r="2.67"/><circle class="cls-1" cx="90.31" cy="13.83" r="2.67"/><circle class="cls-1" cx="97.25" cy="21.07" r="2.67"/><circle class="cls-1" cx="90.31" cy="27.77" r="2.67"/><polygon class="cls-1" points="13.86 21.82 13.86 17.74 17.55 17.74 19.68 20 17.31 21.82 13.86 21.82"/><polygon class="cls-1" points="20.31 11.56 24.39 11.56 24.39 15.26 22.13 17.39 20.31 15.02 20.31 11.56"/><polygon class="cls-1" points="30.03 18.19 30.03 22.27 26.33 22.27 24.2 20 26.57 18.19 30.03 18.19"/><polygon class="cls-1" points="23.77 28.1 19.68 28.1 19.68 24.4 21.95 22.27 23.77 24.64 23.77 28.1"/><circle class="cls-1" cx="37.43" cy="36.86" r="5.68"/><circle class="cls-1" cx="37.43" cy="36.86" r="10.46"/><circle class="cls-1" cx="75.52" cy="36.86" r="5.68"/><circle class="cls-1" cx="75.52" cy="36.86" r="10.46"/><rect class="cls-2" x="48.32" y="25.79" width="1.97" height="1.97"/><rect class="cls-2" x="52.32" y="25.79" width="1.97" height="1.97"/><rect class="cls-2" x="56.31" y="25.79" width="1.97" height="1.97"/><rect class="cls-2" x="50.36" y="28.76" width="1.97" height="1.97"/><rect class="cls-2" x="54.36" y="28.76" width="1.97" height="1.97"/><rect class="cls-2" x="58.35" y="28.76" width="1.97" height="1.97"/><rect class="cls-2" x="60.32" y="25.79" width="1.97" height="1.97"/><path class="cls-1" d="M85.4,4.11V.5s10-.17,11.85,2.72V6.36Z"/><path class="cls-1" d="M15.45,2.85S25.59-.73,27.31,1l.33,3.25L15.45,5.85Z"/><path class="cls-1" d="M31.75,3.73s5.38,18,2.31,21.45-7.19,7.7-9.67,11.68-5.82,11-9.45,23.3-4.77,13.56-8.8,11.35a11,11,0,0,1-5.48-7C.61,63.65.13,45.65,3.21,33.4S6.59,19.64,13.87,6.06Z"/><path class="cls-1" d="M80.72,4.29s-5.53,17.63-2.37,21,7.38,7.53,9.93,11.41,6,10.71,9.7,22.79,4.9,13.26,9,11.1a10.84,10.84,0,0,0,5.63-6.87c0-.81.54-18.42-2.62-30.39s-3.47-13.46-11-26.74Z"/><rect class="cls-2" x="52.33" y="41.76" width="5.94" height="1.97"/></svg>