<svg id="Console_2" data-name="Console 2" xmlns="http://www.w3.org/2000/svg" viewBox="0 0 120.51 102.86"><defs><style>.cls-1,.cls-2{fill:none;}.cls-1,.cls-2,.cls-3{stroke:#000;stroke-miterlimit:10;}.cls-2{stroke-width:0.25px;}.cls-3{fill:#fff;}</style></defs><path class="cls-1" d="M5.51,83.93S-4.91,52.39,4.31,24.06l13.46-5.32S48.31,7,72.91,5.19l14.6-.77s13.25,14.9,19.9,32.23,6.89,23,2.78,27.19a17.73,17.73,0,0,1-9.89,4.73S92.4,53.08,82.54,47.46L27.37,60.93s-4.19,7.35-4.47,20.16S11.24,89,11.24,89A10,10,0,0,1,5.51,83.93Z"/><path class="cls-1" d="M24.77,16.25,32.64,32s1,2.44,2.88,2,29.19-7.18,29.19-7.18,1.37-.43.92-3.43-2.3-17.3-2.3-17.3a152.3,152.3,0,0,0-18.66,4.17C33.6,13.41,24.77,16.25,24.77,16.25Z"/><ellipse class="cls-1" cx="74.81" cy="21.63" rx="2.65" ry="2.67" transform="translate(-3 18.48) rotate(-13.81)"/><ellipse class="cls-1" cx="79.96" cy="13.47" rx="2.65" ry="2.67" transform="translate(-0.9 19.48) rotate(-13.81)"/><ellipse class="cls-1" cx="88.39" cy="18.85" rx="2.65" ry="2.67" transform="translate(-1.94 21.65) rotate(-13.81)"/><ellipse class="cls-1" cx="83.29" cy="27" rx="2.65" ry="2.67" transform="translate(-4.04 20.66) rotate(-13.81)"/><polygon class="cls-1" points="8.06 39.37 7.09 35.4 10.66 34.52 13.25 36.22 11.4 38.55 8.06 39.37"/><polygon class="cls-1" points="11.85 27.88 15.79 26.91 16.67 30.5 14.99 33.1 12.67 31.23 11.85 27.88"/><polygon class="cls-1" points="22.81 32.01 23.78 35.97 20.21 36.85 17.61 35.15 19.47 32.83 22.81 32.01"/><polygon class="cls-1" points="19.13 43.11 15.19 44.08 14.3 40.49 15.98 37.88 18.3 39.76 19.13 43.11"/><ellipse class="cls-1" cx="34.41" cy="48.37" rx="5.65" ry="5.68" transform="translate(-10.55 9.61) rotate(-13.81)"/><ellipse class="cls-1" cx="34.41" cy="48.37" rx="10.4" ry="10.46" transform="translate(-10.55 9.61) rotate(-13.81)"/><ellipse class="cls-1" cx="71.18" cy="39.33" rx="5.65" ry="5.68" transform="translate(-7.33 18.13) rotate(-13.81)"/><ellipse class="cls-1" cx="71.18" cy="39.33" rx="10.4" ry="10.46" transform="translate(-7.33 18.13) rotate(-13.81)"/><rect class="cls-2" x="42.49" y="34.78" width="1.96" height="1.97" transform="translate(-7.28 11.41) rotate(-13.81)"/><rect class="cls-2" x="46.35" y="33.84" width="1.96" height="1.97" transform="translate(-6.94 12.31) rotate(-13.81)"/><rect class="cls-2" x="50.21" y="32.89" width="1.96" height="1.97" transform="translate(-6.61 13.2) rotate(-13.81)"/><rect class="cls-2" x="45.17" y="37.18" width="1.96" height="1.97" transform="translate(-7.78 12.12) rotate(-13.81)"/><rect class="cls-2" x="49.03" y="36.23" width="1.96" height="1.97" transform="translate(-7.44 13.01) rotate(-13.81)"/><rect class="cls-2" x="52.88" y="35.28" width="1.96" height="1.97" transform="translate(-7.1 13.91) rotate(-13.81)"/><rect class="cls-2" x="54.08" y="31.94" width="1.96" height="1.97" transform="translate(-6.27 14.1) rotate(-13.81)"/><path class="cls-1" d="M72.91,5.19l-.86-3.5s9.66-2.56,12.08-.17l.75,3Z"/><path class="cls-1" d="M5.07,20.57s8.94-5.88,11-4.67L17.16,19,5.79,23.48Z"/><path class="cls-1" d="M21,17.55s9.5,16.22,7.35,20.29S23.27,47,21.82,51.47s-3,12-3.56,24.87-1.36,14.3-5.79,13.11a11,11,0,0,1-7-5.52c-.25-.8-5-18.16-5-30.79S.53,39,4.31,24.06Z"/><path class="cls-1" d="M68.43,6.48S67.3,24.9,71.16,27.42s8.92,5.56,12.3,8.73,8.33,9,14.81,19.82,7.89,11.72,11.38,8.64a10.86,10.86,0,0,0,3.79-8c-.14-.8-3.87-18-9.78-28.9s-6.57-12.24-17-23.36Z"/><rect class="cls-2" x="50.12" y="48.87" width="5.91" height="1.97" transform="translate(-10.37 14.11) rotate(-13.81)"/><path class="cls-3" d="M8.62,93.82S6,60.7,21.75,35.4l14.33-2s32.46-4.09,56.79,0l14.36,2.75s9.31,17.63,11.62,36,1.21,24-3.79,27.07a17.77,17.77,0,0,1-10.72,2.24s-4-16.93-12.21-24.75L35.34,76.7s-5.82,6.14-9.15,18.51S13,100.14,13,100.14A10.05,10.05,0,0,1,8.62,93.82Z"/><path class="cls-3" d="M88.21,33.63s-5.5,17.62-2.35,21S93.19,62.14,95.72,66s6,10.71,9.65,22.79,4.87,13.26,9,11.1A10.82,10.82,0,0,0,120,93.05c0-.82.55-18.42-2.6-30.4S113.9,49.2,106.47,35.91Z"/><path class="cls-3" d="M39.53,33.06s5.35,18,2.29,21.46-7.15,7.7-9.61,11.67-5.79,11-9.4,23.3-4.74,13.56-8.75,11.35a11,11,0,0,1-5.44-7C8.56,93,8.08,75,11.15,62.74S14.51,49,21.75,35.4Z"/><path class="cls-3" d="M43.48,32.69l3.89,17.17s.37,2.61,2.31,2.65,30.05,0,30.05,0,1.44-.09,1.72-3.11,1.89-17.35,1.89-17.35a151.66,151.66,0,0,0-19.11-.4C52.73,32,43.48,32.69,43.48,32.69Z"/><ellipse class="cls-3" cx="90.79" cy="49.87" rx="2.65" ry="2.67"/><ellipse class="cls-3" cx="97.74" cy="43.17" rx="2.65" ry="2.67"/><ellipse class="cls-3" cx="104.64" cy="50.4" rx="2.65" ry="2.67"/><ellipse class="cls-3" cx="97.74" cy="57.1" rx="2.65" ry="2.67"/><polygon class="cls-3" points="21.74 51.15 21.74 47.07 25.41 47.07 27.53 49.34 25.17 51.15 21.74 51.15"/><polygon class="cls-3" points="28.15 40.9 32.21 40.9 32.21 44.59 29.96 46.72 28.15 44.35 28.15 40.9"/><polygon class="cls-3" points="37.81 47.53 37.81 51.61 34.13 51.61 32.02 49.34 34.38 47.53 37.81 47.53"/><polygon class="cls-3" points="31.59 57.43 27.53 57.43 27.53 53.73 29.78 51.61 31.59 53.98 31.59 57.43"/><ellipse class="cls-1" cx="45.17" cy="66.19" rx="5.65" ry="5.68"/><ellipse class="cls-1" cx="45.17" cy="66.19" rx="10.4" ry="10.46"/><ellipse class="cls-3" cx="83.04" cy="66.19" rx="10.4" ry="10.46"/><ellipse class="cls-3" cx="83.04" cy="66.19" rx="5.65" ry="5.68"/><rect class="cls-2" x="56" y="55.13" width="1.96" height="1.97"/><rect class="cls-2" x="59.97" y="55.13" width="1.96" height="1.97"/><rect class="cls-2" x="63.94" y="55.13" width="1.96" height="1.97"/><rect class="cls-2" x="58.03" y="58.1" width="1.96" height="1.97"/><rect class="cls-2" x="62" y="58.1" width="1.96" height="1.97"/><rect class="cls-2" x="65.97" y="58.1" width="1.96" height="1.97"/><rect class="cls-2" x="67.93" y="55.13" width="1.96" height="1.97"/><path class="cls-3" d="M92.87,33.44v-3.6s10-.17,11.77,2.72v3.13Z"/><path class="cls-3" d="M23.32,32.19s10.08-3.58,11.79-1.91l.32,3.25L23.32,35.18Z"/><rect class="cls-2" x="59.99" y="71.1" width="5.91" height="1.97"/></svg>