<svg id="Icon_gaming" data-name="Icon gaming" xmlns="http://www.w3.org/2000/svg" viewBox="0 0 184.92 174.65"><defs><style>.cls-1{fill:#231f20;stroke:#231f20;stroke-miterlimit:10;}.cls-2{fill:#fff;}</style></defs><path class="cls-1" d="M30.17,160.64H46.92s5.3-.37,5.3,6.88-9.67,6.61-9.67,6.61H17.8S.41,171.06.5,151.62,20.87,107.8,26.36,103s17.3-12.78,24.19-16,9.58-3.37,9.58-3.37S33.24,64.45,44.41,29.38,98.36,1,98.36,1s20.33,5.54,30.09,21.72a44.86,44.86,0,0,1,2.1,42.42c-4.61,9.35-14,17.86-14,17.86s6.21,3.63,7.4,6.39-2.27,9-10,7.43-18.77-6.56-41.65-2S32,117.2,32,117.2a65.87,65.87,0,0,0-14.8,22.74c-5.3,14-4.88,20.89,8.93,20.79S30.17,160.64,30.17,160.64Z"/><g id="Inner_circle" data-name="Inner circle"><path class="cls-2" d="M54.92,45.9s2.66-31.54,33.63-32.52S121.34,45.9,121.34,45.9s-1.44,32-33.21,33.2S54.92,45.9,54.92,45.9Z"/></g><path class="cls-1" d="M119.94,104.64h37s28.18,6.84,27.49,34.88-27.07,34.64-32.79,34.62-18-1.27-25.26-8.52l-16.6-.14s-3.83,8.26-22.71,8.66S50.45,157,52.27,136.87s18.56-32.51,32.23-32.23S119.94,104.64,119.94,104.64Z"/><polygon class="cls-2" points="65.43 133.01 80.59 133.01 80.59 117.85 93.62 117.85 93.62 133.01 108.59 133.01 108.59 146.03 93.62 146.03 93.62 161.38 80.5 161.38 80.41 145.94 65.43 146.13 65.43 133.01"/><circle class="cls-2" cx="139.68" cy="148.25" r="8.86"/><circle class="cls-2" cx="157.4" cy="130.86" r="8.86"/></svg>