<svg id="Layer_1" data-name="Layer 1" xmlns="http://www.w3.org/2000/svg" viewBox="0 0 104.74 111.76"><defs><style>.cls-1{fill:#fff;stroke:#000;stroke-miterlimit:10;}</style></defs><path class="cls-1" d="M19,100.09s-.5,8.42,7,9.14,16.88,3,16.88-9.14V75.73s1.16-9.86-9.27-6.45S18.77,70.71,18.94,79l.17,8.24Z"/><path class="cls-1" d="M86.24,101.37s.54,8.5-7.55,9.23-18.34,3.07-18.34-9.23V76.75s-1.26-10,10.07-6.51,16,1.45,15.83,9.77l-.19,8.33Z"/><rect class="cls-1" x="13.55" y="86.19" width="5.52" height="5.1"/><rect class="cls-1" x="86.1" y="86.43" width="6.74" height="5.1"/><rect class="cls-1" x="2.16" y="77.26" width="11.39" height="23.82" rx="5.69"/><rect class="cls-1" x="92.84" y="77.26" width="11.39" height="23.82" rx="5.69"/><path class="cls-1" d="M20.54,98.64s-.43,7.29,6,7.91,14.62,2.64,14.62-7.91V77.53s1-8.53-8-5.58-12.77,1.24-12.62,8.38l.15,7.13Z"/><path class="cls-1" d="M84.51,99.9s.46,7.36-6.54,8-15.89,2.67-15.89-8V78.58S61,70,70.8,72.94s13.88,1.25,13.71,8.46l-.16,7.21Z"/><path class="cls-1" d="M4.5,78.67V69.52h5.57v8.32A4.38,4.38,0,0,0,4.5,78.67Z"/><path class="cls-1" d="M95,78.67V69.52h5.58v8.32A4.39,4.39,0,0,0,95,78.67Z"/><path class="cls-1" d="M13.55,18.78s-11,11.6-12.27,26.93S.66,66.57.66,66.57a3.92,3.92,0,0,0,3.84,3h5.57s4.35-1.44,4.35-4.61S9.17,39.08,32.57,21.82s45.05,3.86,47.8,7.32a42.29,42.29,0,0,1,9.88,26c.38,13.81.84,14.42,4.74,14.42h5.58s3.86,1.19,3.66-6.69.29-24.58-12-41.44S61.1,0,46.33.54c0,0-5.25,0-5.25,3.87S51.46,6.48,51.46,6.48,67.73,5.65,79.87,17,95.14,35.63,96.64,42a86.06,86.06,0,0,1,1.89,21l-2.27-.14S98.39,39,83,23.47,59.6,9.52,47.83,9.38,17.3,22.78,12.29,37.56s-3.88,22.8-3.88,22.8l.13,3.87L5.66,64s-.5-17,3.88-26.11A101,101,0,0,1,17,24.44S21.18,17,13.55,18.78Z"/><path class="cls-1" d="M26.81,7.59l7.63-3.73S37.25,2.75,38.35,5s.12,3-1.21,4.15-11,5-14,9-7-4-1.68-7.26Z"/></svg>