<svg id="Layer_1" data-name="Layer 1" xmlns="http://www.w3.org/2000/svg" viewBox="0 0 51.74 121.36"><defs><style>.cls-1{fill:#fff;}.cls-1,.cls-2,.cls-3{stroke:#000;stroke-miterlimit:10;}.cls-2{fill:none;}.cls-3{fill:#020403;}</style></defs><path class="cls-1" d="M11.68,1.49l5.63,3.58s.13-2.7,8.34-2.42S33.5,4.42,33.5,4.42l6.09-2.93s-3.16,6.28,0,36.42,3.86,25.81,4,49.53,1,26-3.63,26-10,.55-10-4.47l-8.58.14S21.13,113.19,17,113s-3.07-4-2.93-12.42,1.51-40.33.21-50.75S14.66,11.21,11.68,1.49Z"/><path class="cls-2" d="M13.92,105.58s-12.26,1.19-11.77,6.14,23.79,5.09,23.79,5.09,24.21-.91,24-5.61-6.2-4.08-6.2-4.08S45,113.47,40,113.4s-9.28.83-10-4.47l-8.58.14S21.06,113.12,17,113,13.84,107.66,13.92,105.58Z"/><path class="cls-2" d="M49.94,111.2c2.93,8.82,0,9.66,0,9.66H.61c-.62-4,1.54-9.14,1.54-9.14s-1.51,4.47,23.79,5.09A83.57,83.57,0,0,0,42,115.12C50.58,113.34,49.94,111.2,49.94,111.2Z"/><path class="cls-2" d="M17.31,5.07,11.68,1.49a52.9,52.9,0,0,1,1.5,10.38l4,43.76,4.12,53.44,1.18,0L20.57,54.51Z"/><polygon class="cls-2" points="13.13 11.03 17.57 8.97 17.87 13.54 13.51 15.44 13.13 11.03"/><polygon class="cls-2" points="11.68 1.49 13.13 11.03 17.57 8.97 17.31 5.07 11.68 1.49"/><polygon class="cls-2" points="13.85 19.12 18.1 17.07 17.87 13.54 13.51 15.44 13.85 19.12"/><polygon class="cls-2" points="14.2 22.9 18.35 20.88 18.1 17.07 13.85 19.12 14.2 22.9"/><polygon class="cls-2" points="14.59 27.11 18.62 24.93 18.35 20.88 14.2 22.9 14.59 27.11"/><polygon class="cls-2" points="14.91 30.62 18.88 28.94 18.62 24.93 14.59 27.11 14.91 30.62"/><polygon class="cls-2" points="15.22 34.01 19.14 32.75 18.88 28.94 14.91 30.62 15.22 34.01"/><polygon class="cls-2" points="15.22 34.01 19.14 32.75 19.41 36.88 15.63 38.43 15.22 34.01"/><polyline class="cls-2" points="15.91 41.44 19.67 40.94 19.41 36.88 15.63 38.43"/><path class="cls-2" d="M33.92,4.7l5.63-3.58A53.4,53.4,0,0,0,38.06,11.5L34,55.26,29.9,108.7l-1.19,0,1.95-54.54Z"/><polygon class="cls-2" points="38.1 10.66 33.66 8.6 33.36 13.16 37.73 15.06 38.1 10.66"/><polygon class="cls-2" points="39.55 1.12 38.1 10.66 33.66 8.6 33.92 4.7 39.55 1.12"/><polygon class="cls-2" points="37.39 18.75 33.13 16.7 33.36 13.16 37.73 15.06 37.39 18.75"/><polygon class="cls-2" points="37.04 22.53 32.88 20.51 33.13 16.7 37.39 18.75 37.04 22.53"/><polygon class="cls-2" points="36.65 26.74 32.61 24.56 32.88 20.51 37.04 22.53 36.65 26.74"/><polygon class="cls-2" points="36.32 30.25 32.35 28.56 32.61 24.56 36.65 26.74 36.32 30.25"/><polygon class="cls-2" points="36.01 33.63 32.1 32.37 32.35 28.56 36.32 30.25 36.01 33.63"/><polygon class="cls-2" points="36.01 33.63 32.1 32.37 31.83 36.51 35.6 38.05 36.01 33.63"/><polyline class="cls-2" points="35.32 41.07 31.56 40.56 31.83 36.51 35.6 38.05"/><rect class="cls-2" x="23.29" y="48.05" width="4.09" height="7.81"/><rect class="cls-2" x="24.45" y="61.8" width="1.77" height="3.37"/><rect class="cls-2" x="24.66" y="87.57" width="1.77" height="4.75"/><rect class="cls-2" x="24.66" y="94.29" width="1.77" height="5.15"/><rect class="cls-3" x="36.32" y="66.74" width="1.78" height="39.64"/></svg>