<svg id="Layer_1" data-name="Layer 1" xmlns="http://www.w3.org/2000/svg" viewBox="0 0 96.4 92.98"><defs><style>.cls-1,.cls-2{fill:none;stroke:#000;stroke-miterlimit:10;}.cls-2{stroke-width:0.5px;}</style></defs><rect class="cls-1" x="2.55" y="0.5" width="91.54" height="48.44"/><rect class="cls-1" x="4.85" y="3.81" width="86.93" height="41.83"/><rect class="cls-1" x="27.85" y="48.94" width="43.47" height="2.27"/><polygon class="cls-1" points="27.85 51.22 2.55 61.55 94.08 61.55 71.31 51.22 27.85 51.22"/><rect class="cls-1" x="6.27" y="69.88" width="78.77" height="22.6"/><path class="cls-1" d="M51.2,61.55s-6.79,2-3.53,5.16-.37,3.17-.37,3.17"/><rect class="cls-2" x="10.67" y="71.83" width="5.93" height="3.28"/><rect class="cls-2" x="20.37" y="71.83" width="5.93" height="3.28"/><rect class="cls-2" x="29.71" y="71.83" width="3.93" height="3.28"/><rect class="cls-2" x="10.67" y="77.69" width="8.8" height="3.28"/><rect class="cls-2" x="10.57" y="84.06" width="7.59" height="3.28"/><rect class="cls-2" x="36.77" y="71.83" width="3.93" height="3.28"/><rect class="cls-2" x="43.57" y="71.83" width="3.93" height="3.28"/><rect class="cls-2" x="49.6" y="71.83" width="3.93" height="3.28"/><rect class="cls-2" x="22.06" y="77.41" width="3.93" height="3.28"/><rect class="cls-2" x="29.12" y="77.41" width="3.93" height="3.28"/><rect class="cls-2" x="35.92" y="77.41" width="3.93" height="3.28"/><rect class="cls-2" x="41.95" y="77.41" width="3.93" height="3.28"/><rect class="cls-2" x="20.41" y="84.06" width="3.93" height="3.28"/><rect class="cls-2" x="27.47" y="84.06" width="3.93" height="3.28"/><rect class="cls-2" x="34.26" y="84.06" width="3.93" height="3.28"/><rect class="cls-2" x="40.29" y="84.06" width="12.98" height="3.28"/><rect class="cls-2" x="48.02" y="77.41" width="3.93" height="3.28"/><rect class="cls-2" x="55.08" y="77.41" width="3.93" height="3.28"/><rect class="cls-2" x="61.87" y="77.41" width="3.93" height="3.28"/><rect class="cls-2" x="74.46" y="83.08" width="5.99" height="5.23"/><rect class="cls-2" x="70.49" y="77.9" width="3.93" height="3.28"/><rect class="cls-2" x="76.52" y="77.9" width="3.93" height="3.28"/><rect class="cls-2" x="56.2" y="71.83" width="3.93" height="3.28"/><rect class="cls-2" x="62.27" y="71.83" width="3.93" height="3.28"/><rect class="cls-2" x="69.33" y="71.83" width="3.93" height="3.28"/><rect class="cls-2" x="76.13" y="71.83" width="3.93" height="3.28"/><rect class="cls-2" x="60.44" y="84.06" width="3.93" height="3.28"/><rect class="cls-2" x="67.23" y="84.06" width="3.93" height="3.28"/></svg>