<svg id="Layer_1" data-name="Layer 1" xmlns="http://www.w3.org/2000/svg" viewBox="0 0 159.25 88.47"><defs><style>.cls-1{fill:none;stroke:#000;stroke-miterlimit:10;}</style></defs><rect class="cls-1" x="41.95" y="29.03" width="75.36" height="39.88"/><rect class="cls-1" x="43.84" y="31.75" width="71.57" height="34.44"/><rect class="cls-1" x="62.78" y="68.91" width="35.78" height="1.87"/><polygon class="cls-1" points="62.78 70.78 41.95 79.3 117.31 79.3 98.56 70.78 62.78 70.78"/><rect class="cls-1" x="0.5" y="0.5" width="35.98" height="87.47" rx="12"/><circle class="cls-1" cx="18.49" cy="19" r="7.29"/><circle class="cls-1" cx="18.49" cy="41.5" r="7.29"/><circle class="cls-1" cx="18.08" cy="68.73" r="12.16"/><rect class="cls-1" x="122.77" y="0.5" width="35.98" height="87.47" rx="12"/><circle class="cls-1" cx="140.76" cy="19" r="7.29"/><circle class="cls-1" cx="140.76" cy="41.5" r="7.29"/><circle class="cls-1" cx="140.35" cy="68.73" r="12.16"/><rect class="cls-1" x="126" y="3.72" width="29.51" height="81.28" rx="12"/><rect class="cls-1" x="3.73" y="3.72" width="29.51" height="81.28" rx="12"/></svg>