<svg id="Layer_1" data-name="Layer 1" xmlns="http://www.w3.org/2000/svg" viewBox="0 0 142.32 155.6"><defs><style>.cls-1{fill:#fff;}.cls-1,.cls-2,.cls-3,.cls-4{stroke:#000;stroke-miterlimit:10;}.cls-2,.cls-4{fill:none;}.cls-3{fill:#020403;}.cls-4{stroke-width:0.25px;}</style></defs><path class="cls-1" d="M14.88,1.6l7.24,4.6s.16-3.47,10.73-3.11S42.93,5.36,42.93,5.36L50.77,1.6s-4.07,8.07,0,46.83,5,33.19,5.14,63.7,1.26,33.37-4.66,33.37-12.92.72-12.92-5.74l-11,.18s-.27,5.29-5.56,5-3.95-5.11-3.77-16,1.95-51.85.27-65.25S18.71,14.1,14.88,1.6Z"/><path class="cls-2" d="M17.75,135.45S2,137,2.62,143.35s30.59,6.55,30.59,6.55,31.14-1.17,30.87-7.23-8-5.24-8-5.24,1.59,8.16-4.85,8.07-11.94,1.08-12.92-5.74l-11,.18s-.36,5.2-5.56,5S17.65,138.12,17.75,135.45Z"/><path class="cls-2" d="M64.08,142.67c3.76,11.35,0,12.43,0,12.43H.65c-.81-5.2,2-11.75,2-11.75s-1.94,5.74,30.59,6.55a107.81,107.81,0,0,0,20.71-2.18C64.9,145.42,64.08,142.67,64.08,142.67Z"/><path class="cls-2" d="M22.12,6.2,14.88,1.6A68.43,68.43,0,0,1,16.8,15L22,71.22l5.29,68.72,1.53,0L26.31,69.78Z"/><polygon class="cls-2" points="16.74 13.86 22.45 11.22 22.84 17.09 17.23 19.53 16.74 13.86"/><polygon class="cls-2" points="14.88 1.6 16.74 13.86 22.45 11.22 22.12 6.2 14.88 1.6"/><polygon class="cls-2" points="17.66 24.27 23.14 21.64 22.84 17.09 17.23 19.53 17.66 24.27"/><polygon class="cls-2" points="18.11 29.13 23.46 26.53 23.14 21.64 17.66 24.27 18.11 29.13"/><polygon class="cls-2" points="18.61 34.55 23.8 31.74 23.46 26.53 18.11 29.13 18.61 34.55"/><polygon class="cls-2" points="19.03 39.06 24.14 36.89 23.8 31.74 18.61 34.55 19.03 39.06"/><polygon class="cls-2" points="19.43 43.41 24.46 41.79 24.14 36.89 19.03 39.06 19.43 43.41"/><polygon class="cls-2" points="19.43 43.41 24.46 41.79 24.81 47.11 19.96 49.1 19.43 43.41"/><polyline class="cls-2" points="20.31 52.97 25.16 52.32 24.81 47.11 19.96 49.1"/><path class="cls-2" d="M43.48,5.72l7.23-4.6a68.43,68.43,0,0,0-1.92,13.35L43.6,70.74l-5.3,68.72-1.52,0L39.29,69.3Z"/><polygon class="cls-2" points="48.85 13.38 43.15 10.74 42.76 16.61 48.37 19.05 48.85 13.38"/><polygon class="cls-2" points="50.71 1.12 48.85 13.38 43.15 10.74 43.48 5.72 50.71 1.12"/><polygon class="cls-2" points="47.93 23.79 42.46 21.16 42.76 16.61 48.37 19.05 47.93 23.79"/><polygon class="cls-2" points="47.48 28.66 42.14 26.05 42.46 21.16 47.93 23.79 47.48 28.66"/><polygon class="cls-2" points="46.98 34.07 41.79 31.26 42.14 26.05 47.48 28.66 46.98 34.07"/><polygon class="cls-2" points="46.57 38.58 41.45 36.41 41.79 31.26 46.98 34.07 46.57 38.58"/><polygon class="cls-2" points="46.16 42.93 41.13 41.31 41.45 36.41 46.57 38.58 46.16 42.93"/><polygon class="cls-2" points="46.16 42.93 41.13 41.31 40.78 46.63 45.64 48.62 46.16 42.93"/><polyline class="cls-2" points="45.28 52.49 40.44 51.84 40.78 46.63 45.64 48.62"/><rect class="cls-2" x="29.8" y="61.47" width="5.26" height="10.05"/><rect class="cls-2" x="31.3" y="79.16" width="2.27" height="4.33"/><rect class="cls-2" x="31.57" y="112.29" width="2.27" height="6.11"/><rect class="cls-2" x="31.57" y="120.93" width="2.27" height="6.63"/><rect class="cls-3" x="46.57" y="85.51" width="2.29" height="50.98"/><path class="cls-2" d="M73.32,110.1s-1.56-19.85,7.92-35l8.64-1.17s19.57-2.45,34.23,0l8.66,1.65s5.62,10.56,7,21.6.73,14.39-2.29,16.23a10.75,10.75,0,0,1-6.46,1.34s-2.4-10.15-7.36-14.84l-34.24,0s-3.51,3.68-5.52,11.09-8,3-8,3A6,6,0,0,1,73.32,110.1Z"/><path class="cls-2" d="M94.34,73.46l2.34,10.29s.22,1.56,1.4,1.59,18.12,0,18.12,0,.86,0,1-1.87,1.14-10.39,1.14-10.39a92.85,92.85,0,0,0-11.52-.25C99.92,73.07,94.34,73.46,94.34,73.46Z"/><circle class="cls-2" cx="122.86" cy="83.75" r="1.6"/><circle class="cls-2" cx="127.05" cy="79.74" r="1.6"/><circle class="cls-2" cx="131.21" cy="84.08" r="1.6"/><circle class="cls-2" cx="127.05" cy="88.09" r="1.6"/><polygon class="cls-2" points="81.23 84.53 81.23 82.08 83.45 82.08 84.72 83.44 83.3 84.53 81.23 84.53"/><polygon class="cls-2" points="85.1 78.38 87.54 78.38 87.54 80.6 86.19 81.87 85.1 80.45 85.1 78.38"/><polygon class="cls-2" points="90.92 82.35 90.92 84.8 88.7 84.8 87.43 83.44 88.85 82.35 90.92 82.35"/><polygon class="cls-2" points="87.17 88.29 84.72 88.29 84.72 86.07 86.08 84.8 87.17 86.22 87.17 88.29"/><circle class="cls-2" cx="95.36" cy="93.54" r="3.4"/><circle class="cls-2" cx="95.36" cy="93.54" r="6.27"/><circle class="cls-2" cx="118.19" cy="93.54" r="3.4"/><circle class="cls-2" cx="118.19" cy="93.54" r="6.27"/><rect class="cls-4" x="101.89" y="86.91" width="1.18" height="1.18"/><rect class="cls-4" x="104.28" y="86.91" width="1.18" height="1.18"/><rect class="cls-4" x="106.68" y="86.91" width="1.18" height="1.18"/><rect class="cls-4" x="103.11" y="88.69" width="1.18" height="1.18"/><rect class="cls-4" x="105.5" y="88.69" width="1.18" height="1.18"/><rect class="cls-4" x="107.9" y="88.69" width="1.18" height="1.18"/><rect class="cls-4" x="109.08" y="86.91" width="1.18" height="1.18"/><path class="cls-2" d="M124.11,73.91V71.75s6-.1,7.1,1.63v1.88Z"/><path class="cls-2" d="M82.18,73.16S88.26,71,89.29,72l.2,1.94-7.31,1Z"/><path class="cls-2" d="M92,73.68s3.22,10.8,1.38,12.86a57.32,57.32,0,0,0-5.8,7c-1.48,2.38-3.49,6.56-5.66,14s-2.86,8.13-5.28,6.81a6.59,6.59,0,0,1-3.28-4.21c0-.5-.32-11.29,1.53-18.63s2-8.25,6.39-16.39Z"/><path class="cls-2" d="M121.3,74S118,84.59,119.89,86.6a56.77,56.77,0,0,1,5.94,6.84c1.53,2.33,3.59,6.42,5.82,13.66s2.94,8,5.42,6.65a6.48,6.48,0,0,0,3.37-4.11c0-.49.33-11-1.57-18.22s-2.08-8.07-6.56-16Z"/><rect class="cls-4" x="104.29" y="96.48" width="3.56" height="1.18"/><path class="cls-2" d="M74.66,56.76s-1.56-19.84,7.92-35l8.64-1.17s19.57-2.45,34.24,0l8.65,1.64s5.62,10.57,7,21.61.72,14.38-2.29,16.22a10.78,10.78,0,0,1-6.47,1.34S130,51.24,125,46.56l-34.23-.05s-3.51,3.67-5.52,11.09-8,3-8,3A6.09,6.09,0,0,1,74.66,56.76Z"/><path class="cls-2" d="M95.68,20.13,98,30.42S98.25,32,99.42,32s18.12,0,18.12,0,.87-.06,1-1.87,1.15-10.4,1.15-10.4a91.88,91.88,0,0,0-11.52-.24C101.26,19.74,95.68,20.13,95.68,20.13Z"/><circle class="cls-2" cx="124.2" cy="30.42" r="1.6"/><circle class="cls-2" cx="128.4" cy="26.41" r="1.6"/><circle class="cls-2" cx="132.56" cy="30.74" r="1.6"/><circle class="cls-2" cx="128.4" cy="34.76" r="1.6"/><polygon class="cls-2" points="82.58 31.19 82.58 28.75 84.79 28.75 86.07 30.11 84.64 31.19 82.58 31.19"/><polygon class="cls-2" points="86.44 25.05 88.89 25.05 88.89 27.26 87.53 28.54 86.44 27.12 86.44 25.05"/><polygon class="cls-2" points="92.27 29.02 92.27 31.46 90.05 31.46 88.78 30.11 90.2 29.02 92.27 29.02"/><polygon class="cls-2" points="88.51 34.96 86.07 34.96 86.07 32.74 87.43 31.46 88.51 32.89 88.51 34.96"/><circle class="cls-2" cx="96.71" cy="40.21" r="3.4"/><circle class="cls-2" cx="96.71" cy="40.21" r="6.27"/><circle class="cls-2" cx="119.53" cy="40.21" r="3.4"/><circle class="cls-2" cx="119.53" cy="40.21" r="6.27"/><rect class="cls-4" x="103.23" y="33.58" width="1.18" height="1.18"/><rect class="cls-4" x="105.63" y="33.58" width="1.18" height="1.18"/><rect class="cls-4" x="108.02" y="33.58" width="1.18" height="1.18"/><rect class="cls-4" x="104.46" y="35.35" width="1.18" height="1.18"/><rect class="cls-4" x="106.85" y="35.35" width="1.18" height="1.18"/><rect class="cls-4" x="109.24" y="35.35" width="1.18" height="1.18"/><rect class="cls-4" x="110.43" y="33.58" width="1.18" height="1.18"/><path class="cls-2" d="M125.46,20.58V18.42s6-.11,7.1,1.63v1.88Z"/><path class="cls-2" d="M83.53,19.83s6.08-2.15,7.11-1.15l.19,1.95-7.3,1Z"/><path class="cls-2" d="M93.3,20.35s3.23,10.8,1.38,12.86a56.49,56.49,0,0,0-5.79,7c-1.48,2.38-3.49,6.56-5.67,14S80.37,62.3,78,61a6.64,6.64,0,0,1-3.29-4.21c0-.49-.32-11.28,1.53-18.62s2-8.25,6.39-16.39Z"/><path class="cls-2" d="M122.65,20.69s-3.31,10.56-1.42,12.58a55.25,55.25,0,0,1,6,6.84c1.52,2.33,3.59,6.42,5.82,13.66s2.93,7.95,5.42,6.65a6.49,6.49,0,0,0,3.37-4.12c0-.48.33-11-1.57-18.22s-2.08-8.06-6.56-16Z"/><rect class="cls-4" x="105.64" y="43.15" width="3.56" height="1.18"/></svg>